<?xml version="1.0" standalone="no"?>
<!DOCTYPE svg PUBLIC "-//W3C//DTD SVG 20010904//EN"
 "http://www.w3.org/TR/2001/REC-SVG-20010904/DTD/svg10.dtd">
<svg version="1.0" xmlns="http://www.w3.org/2000/svg"
 width="270.000000pt" height="270.000000pt" viewBox="0 0 270.000000 270.000000"
 preserveAspectRatio="xMidYMid meet">
<metadata>
Created by potrace 1.11, written by Peter Selinger 2001-2013
</metadata>
<g transform="translate(0.000000,270.000000) scale(0.100000,-0.100000)"
fill="#000000" stroke="none">
<path d="M1128 2354 c-2 -1 -23 -5 -47 -9 -96 -14 -348 -111 -359 -137 -2 -4
-10 -8 -18 -8 -8 0 -20 -5 -27 -10 -7 -6 -41 -29 -77 -52 -36 -23 -67 -44 -70
-47 -3 -3 -25 -22 -50 -42 -74 -60 -144 -130 -194 -194 -26 -33 -51 -66 -57
-73 -49 -61 -156 -283 -175 -364 -1 -5 -2 -9 -4 -10 -2 -3 -4 -11 -15 -58 -21
-89 -21 -255 -1 -349 30 -138 84 -260 166 -371 64 -86 208 -220 238 -220 6 0
12 -4 14 -9 6 -16 156 -86 228 -106 79 -22 171 -45 177 -43 4 1 28 -2 53 -6
89 -14 117 -15 225 -15 103 0 157 3 230 12 78 11 122 17 143 22 12 3 31 7 41
9 45 10 174 48 204 60 17 7 41 17 52 21 11 5 23 7 28 7 4 -1 7 3 7 9 0 5 5 7
10 4 6 -3 10 -1 10 4 0 6 3 11 8 10 13 -2 52 13 52 20 0 4 6 8 13 8 25 0 247
146 269 178 4 5 8 7 8 3 0 -12 150 141 150 154 0 6 3 8 6 5 4 -4 27 21 50 55
24 34 50 65 56 70 7 4 9 8 5 8 -4 0 4 17 18 37 14 21 25 43 25 50 0 7 5 13 10
13 6 0 10 4 10 9 0 5 10 30 22 57 12 27 21 53 20 58 -2 4 2 14 9 22 6 8 9 20
6 28 -3 7 0 19 6 25 12 12 16 41 20 160 3 80 -8 165 -31 238 -13 40 -64 156
-72 163 -4 3 -21 27 -40 54 -18 27 -55 71 -81 98 -27 28 -49 54 -49 60 0 5 -4
6 -10 3 -19 -12 -10 13 18 46 15 18 80 87 145 152 64 66 117 124 117 129 0 22
-37 18 -122 -12 -51 -17 -118 -45 -150 -61 -32 -16 -58 -26 -58 -23 0 4 -8 0
-17 -8 -10 -8 -44 -29 -75 -47 -50 -28 -60 -30 -80 -20 -13 7 -24 12 -25 11
-2 0 -33 13 -70 29 -36 17 -74 32 -82 34 -9 2 -41 13 -71 25 -30 13 -68 26
-85 30 -16 5 -61 18 -100 29 -38 12 -81 23 -95 26 -14 3 -36 7 -50 10 -125 26
-399 52 -412 39z m87 -264 c22 -6 47 -12 55 -14 133 -33 374 -108 435 -136 11
-5 41 -18 68 -29 26 -11 47 -24 46 -28 0 -4 -21 -25 -47 -46 -109 -89 -550
-517 -533 -517 8 0 -22 -20 -31 -20 -6 0 -23 21 -111 133 -87 111 -195 200
-257 212 -37 7 -89 -15 -103 -43 -18 -36 -12 -56 33 -116 20 -28 55 -82 76
-121 21 -38 43 -73 48 -77 6 -4 7 -8 3 -8 -4 0 1 -10 13 -22 11 -12 20 -26 20
-30 0 -17 84 -133 125 -174 23 -22 59 -49 81 -59 44 -21 132 -27 153 -11 8 6
17 10 20 9 29 -8 190 111 325 242 17 16 34 29 39 27 4 -1 7 2 7 7 0 5 57 67
128 138 70 71 164 169 209 217 l82 89 41 -44 c22 -24 47 -51 55 -60 8 -9 15
-19 15 -23 0 -4 8 -20 19 -34 19 -27 55 -132 45 -132 -3 0 -2 -5 2 -12 11 -17
12 -88 2 -94 -5 -3 -6 -9 -3 -14 3 -5 1 -29 -6 -52 -6 -24 -11 -44 -10 -45 3
-8 -77 -145 -109 -188 -44 -58 -122 -139 -169 -175 -18 -14 -38 -30 -44 -35
-24 -21 -103 -72 -157 -101 -30 -16 -58 -33 -61 -37 -3 -5 -9 -8 -13 -6 -13 4
-76 -24 -76 -35 0 -5 -3 -7 -6 -3 -3 3 -29 -2 -58 -13 -28 -10 -67 -22 -86
-26 -47 -11 -50 -11 -52 -14 -8 -5 -126 -24 -160 -24 -16 -1 -28 -3 -28 -6 0
-12 -290 -1 -360 14 -32 6 -76 18 -90 23 -23 9 -38 13 -45 13 -10 -1 -130 65
-133 72 -2 5 -8 8 -13 8 -25 0 -132 111 -177 184 -20 33 -37 62 -38 65 0 3 -8
24 -18 46 -17 40 -29 91 -30 133 -1 12 -3 22 -6 22 -3 0 -5 30 -3 68 3 76 18
156 38 202 2 3 6 15 10 28 29 89 134 262 206 339 142 151 277 245 489 341 26
12 77 9 145 -8z"/>
</g>
</svg>
