<svg xmlns="http://www.w3.org/2000/svg" width="1367" height="463.53" viewBox="0 0 1367 463.53">
  <defs>
    <style>
      .cls-1 {
        fill: #4285f4;
        stroke: #000;
        stroke-miterlimit: 10;
        opacity: 0.07;
      }
    </style>
  </defs>
  <title>Layer 1</title>
  <g id="Layer_2" data-name="Layer 2">
    <g id="Layer_1-2" data-name="Layer 1">
      <path class="cls-1" d="M.5,7.12a1212.16,1212.16,0,0,0,203,33c89.59,6.81,158.54,2,212-2,94.07-7,116.88-16,201-26,28.36-3.37,161.22-18.42,332-8,78.58,4.79,175.72,11.24,299,45,49.53,13.56,90.15,27.93,119,39v354c-86.33-28.13-225.92-64.2-399-64-182.83.2-275.35,40.73-491,67-107.86,13.13-270.8,25.65-476,12Z"/>
    </g>
  </g>
</svg>
